<svg width="34" height="30" viewBox="0 0 34 30" fill="none" xmlns="http://www.w3.org/2000/svg">
<path d="M32.209 7.27148C31.8398 5.88281 30.7559 4.79297 29.3789 4.42383C26.8828 3.75 16.875 3.75 16.875 3.75C16.875 3.75 6.86719 3.75 4.37109 4.42383C2.99414 4.79297 1.91016 5.88281 1.54102 7.27148C0.873047 9.78516 0.873047 15.0234 0.873047 15.0234C0.873047 15.0234 0.873047 20.2617 1.54102 22.7754C1.91016 24.1641 2.99414 25.207 4.37109 25.5762C6.86719 26.25 16.875 26.25 16.875 26.25C16.875 26.25 26.8828 26.25 29.3789 25.5762C30.7559 25.207 31.8398 24.1582 32.209 22.7754C32.877 20.2617 32.8769 15.0234 32.8769 15.0234C32.8769 15.0234 32.877 9.78516 32.209 7.27148ZM13.6055 19.7812V10.2656L21.9668 15.0234L13.6055 19.7812Z" fill="white" fill-opacity="0.7"/>
</svg>
