<svg width="2969" height="734" viewBox="0 0 2969 734" fill="none" xmlns="http://www.w3.org/2000/svg">
<path d="M616.307 405.687C616.307 363.718 608.199 332.58 591.98 312.294C575.738 292.031 551.142 281.907 518.066 281.907H482.887V538.554H509.805C546.539 538.554 573.458 527.661 590.6 505.805C607.719 483.99 616.307 450.608 616.307 405.687ZM741.775 401.313C741.775 477.775 721.223 536.695 680.115 578.049C639.009 619.422 581.224 640.109 506.735 640.109H362V181.942H516.841C588.661 181.942 644.109 200.752 683.183 238.349C722.239 275.967 741.775 330.263 741.775 401.318M1142.69 640.106H1257.86V180.017H1142.69V640.106ZM1419.66 468.49C1419.66 497.824 1423.49 520.199 1431.14 535.574C1438.81 550.972 1451.66 558.66 1469.72 558.66C1487.59 558.66 1500.22 550.972 1507.58 535.574C1514.94 520.199 1518.61 497.824 1518.61 468.49C1518.61 439.308 1514.89 417.298 1507.43 402.442C1499.95 387.54 1487.2 380.084 1469.12 380.084C1451.44 380.084 1438.81 387.506 1431.14 402.267C1423.49 417.049 1419.66 439.116 1419.66 468.49ZM1635.83 468.49C1635.83 524.378 1621.18 567.979 1591.81 599.229C1562.46 630.499 1521.37 646.146 1468.55 646.146C1417.89 646.146 1377.57 630.155 1347.64 598.174C1317.68 566.195 1302.7 522.979 1302.7 468.493C1302.7 412.774 1317.37 369.481 1346.74 338.614C1376.11 307.745 1417.3 292.313 1470.33 292.313C1503.1 292.313 1532.09 299.465 1557.2 313.748C1582.34 328.028 1601.74 348.489 1615.37 375.139C1629.02 401.75 1635.83 432.888 1635.83 468.49ZM1681.57 640.106H1796.76V298.353H1681.57V640.106ZM1681.56 257.013H1796.75V180H1681.56V257.013ZM2030.13 552.939C2045.68 552.939 2064.2 548.988 2085.8 541.148V627.138C2070.27 633.962 2055.51 638.85 2041.47 641.746C2027.44 644.681 2010.97 646.137 1992.12 646.137C1953.45 646.137 1925.58 636.418 1908.45 617.012C1891.41 597.612 1882.86 567.818 1882.86 527.613V386.727H1842.52V298.384H1882.86V211.106L1998.93 190.919V298.381H2072.42V386.73H1998.93V519.75C1998.93 541.876 2009.34 552.939 2030.13 552.939ZM2296.72 552.939C2312.27 552.939 2330.79 548.988 2352.39 541.148V627.138C2336.88 633.962 2322.1 638.85 2308.07 641.746C2294.01 644.681 2277.6 646.137 2258.72 646.137C2220.05 646.137 2192.17 636.418 2175.08 617.012C2158 597.612 2149.45 567.818 2149.45 527.613V386.727H2109.09V298.384H2149.45V209.786L2265.5 190.919V298.381H2339.03V386.73H2265.5V519.75C2265.5 541.876 2275.91 552.939 2296.72 552.939ZM2497.74 426.857C2499.31 408.145 2504.66 394.435 2513.78 385.675C2522.95 376.932 2534.26 372.56 2547.8 372.56C2562.56 372.56 2574.29 377.468 2583 387.36C2591.76 397.195 2596.32 410.369 2596.69 426.857H2497.74ZM2660.17 332.603C2632.79 305.764 2593.95 292.321 2543.7 292.321C2490.87 292.321 2450.22 307.756 2421.73 338.623C2393.26 369.492 2379.02 413.778 2379.02 471.493C2379.02 527.378 2394.41 570.479 2425.13 600.733C2455.86 630.988 2499.02 646.135 2554.6 646.135C2581.29 646.135 2604.26 644.314 2623.51 640.69C2642.64 637.106 2661.17 630.624 2679.13 621.268L2661.43 544.25C2648.38 549.584 2635.95 553.684 2624.22 556.385C2607.27 560.319 2588.67 562.292 2568.42 562.292C2546.22 562.292 2528.7 556.868 2515.85 546.016C2503.01 535.145 2496.16 520.151 2495.38 501.056H2701.25V448.579C2701.25 398.098 2687.57 359.425 2660.17 332.603ZM894.637 426.857C896.209 408.145 901.56 394.435 910.684 385.675C919.828 376.932 931.16 372.56 944.718 372.56C959.441 372.56 971.176 377.468 979.899 387.36C988.659 397.195 993.203 410.369 993.607 426.857H894.637ZM1057.09 332.603C1029.69 305.764 990.864 292.321 940.594 292.321C887.754 292.321 847.128 307.756 818.655 338.623C790.184 369.492 775.921 413.778 775.921 471.493C775.921 527.378 791.296 570.479 822.05 600.733C852.764 630.988 895.921 646.135 951.505 646.135C978.192 646.135 1001.16 644.314 1020.41 640.69C1039.54 637.106 1058.07 630.624 1076.05 621.268L1058.33 544.25C1045.28 549.584 1032.85 553.684 1021.14 556.385C1004.15 560.319 985.575 562.292 965.325 562.292C943.143 562.292 925.603 556.868 912.756 546.016C899.889 535.145 893.065 520.151 892.281 501.056H1098.16V448.579C1098.16 398.098 1084.47 359.425 1057.09 332.603Z" fill="white"/>
<path d="M2767 579.26C2767 542.678 2796.7 513 2833.26 513C2869.84 513 2899.51 542.678 2899.51 579.26C2899.51 615.842 2869.84 645.503 2833.26 645.503C2796.7 645.503 2767 615.842 2767 579.26Z" fill="#86BC24"/>
</svg>
