<svg width="207" height="46" viewBox="0 0 207 46" fill="none" xmlns="http://www.w3.org/2000/svg">
<g id="Layer_1" clip-path="url(#clip0_4_259)">
<path id="Vector" d="M65.9702 9.59281C63.2424 8.13627 60.1036 7.40845 56.5537 7.40845C53.0039 7.40845 49.865 8.13627 47.1372 9.59281C44.4094 11.0493 42.288 13.0432 40.7729 15.5762C39.257 18.1083 38.4994 21.0429 38.4994 24.3774C38.4994 27.7119 39.256 30.5828 40.7729 33.1149C42.288 35.647 44.4094 37.6417 47.1372 39.0983C49.865 40.5548 53.0029 41.2826 56.5537 41.2826C60.1045 41.2826 63.2424 40.5548 65.9702 39.0983C68.698 37.6417 70.8185 35.638 72.3345 33.0834C73.8496 30.5297 74.6071 27.6068 74.6071 24.3136C74.6071 21.0205 73.8486 18.1083 72.3345 15.5762C70.8185 13.0432 68.698 11.0484 65.9702 9.59281ZM64.6063 29.5378C63.8276 31.0365 62.7448 32.2082 61.3597 33.052C59.9736 33.8966 58.372 34.318 56.5537 34.318C54.7355 34.318 53.1329 33.8966 51.7478 33.052C50.3618 32.2082 49.2808 31.0365 48.5011 29.5378C47.7224 28.0399 47.3326 26.3192 47.3326 24.3774C47.3326 22.4357 47.7224 20.6521 48.5011 19.1533C49.2808 17.6554 50.3618 16.4837 51.7478 15.6391C53.1329 14.7954 54.7355 14.3731 56.5537 14.3731C58.372 14.3731 59.9736 14.7954 61.3597 15.6391C62.7448 16.4837 63.8276 17.6554 64.6063 19.1533C65.386 20.6521 65.7758 22.3728 65.7758 24.3136C65.7758 26.2545 65.386 28.0399 64.6063 29.5369V29.5378Z" fill="white"/>
<path id="Vector_2" d="M94.8445 8.83262C93.1774 9.48765 91.7278 10.5956 90.4939 12.1563C89.9428 12.8545 89.4801 13.6856 89.0977 14.6363V8.42018H80.5908V40.269H89.1631V26.6561C89.1631 24.0387 89.5852 21.9073 90.4293 20.2603C91.2735 18.6142 92.431 17.4011 93.9036 16.6194C95.3744 15.8386 97.1282 15.4477 99.1639 15.4477H100.917V7.84961H99.7472C98.1456 7.84961 96.5107 8.17668 94.8445 8.83082V8.83262Z" fill="white"/>
<path id="Vector_3" d="M120.67 40.27V15.1333H128.788V8.42114H120.67V0H112.099V8.42114H106.384V15.1333H112.099V40.27H120.67Z" fill="white"/>
<path id="Vector_4" d="M150.642 34.7619C148.521 34.7619 146.648 34.3504 145.025 33.5273C143.402 32.7042 142.124 31.5011 141.193 29.9178C140.665 29.0211 140.293 28.0165 140.065 26.9104H165.513V24.0611C165.513 20.7689 164.798 17.8774 163.369 15.3866C161.941 12.8967 159.96 10.9442 157.427 9.52991C154.894 8.1165 152.004 7.40845 148.758 7.40845C145.511 7.40845 142.426 8.12638 139.763 9.56136C137.101 10.9972 135 12.9911 133.464 15.5448C131.927 18.0993 131.159 21.0438 131.159 24.3774C131.159 27.711 131.959 30.6457 133.561 33.1787C135.163 35.7116 137.393 37.6965 140.25 39.1306C143.108 40.5656 146.419 41.2835 150.185 41.2835C153.303 41.2835 156.149 40.766 158.725 39.7326C161.3 38.6984 163.411 37.2742 165.057 35.4583L160.511 30.3303C157.827 33.2847 154.537 34.7628 150.64 34.7628L150.642 34.7619ZM140.935 18.7103C141.691 17.1702 142.742 15.9877 144.084 15.1647C145.426 14.3416 146.985 13.9301 148.76 13.9301C150.536 13.9301 151.91 14.3317 153.143 15.1332C154.377 15.9356 155.351 17.0543 156.066 18.4884C156.527 19.4166 156.838 20.4517 157.001 21.591H140.018C140.205 20.5415 140.507 19.5792 140.935 18.7103Z" fill="white"/>
<path id="Vector_5" d="M206.751 46L189.892 24.5742L205.858 4.33997L193.081 9.24511L185.445 18.9224L177.83 9.24511L165.137 4.33997L181.004 24.5509L164.079 46L176.856 41.0949L185.446 30.209L193.991 41.0949L206.751 46Z" fill="white"/>
<path id="Vector_6" d="M18.908 31.9657L9.64816 8.42114H0.751419L14.6485 40.27H22.961L36.9226 8.42114H28.2858L18.908 31.9657Z" fill="white"/>
</g>
<defs>
<clipPath id="clip0_4_259">
<rect width="206" height="46" fill="white" transform="translate(0.751419)"/>
</clipPath>
</defs>
</svg>
