<svg width="237" height="46" viewBox="0 0 237 46" fill="none" xmlns="http://www.w3.org/2000/svg">
<mask id="mask0_97_74" style="mask-type:luminance" maskUnits="userSpaceOnUse" x="16" y="0" width="206" height="46">
<path d="M222 0H16V46H222V0Z" fill="white"/>
</mask>
<g mask="url(#mask0_97_74)">
<path d="M81.2188 9.59305C78.491 8.13651 75.3522 7.40869 71.8023 7.40869C68.2525 7.40869 65.1136 8.13651 62.3858 9.59305C59.658 11.0495 57.5366 13.0434 56.0215 15.5764C54.5056 18.1085 53.748 21.0431 53.748 24.3776C53.748 27.7121 54.5046 30.583 56.0215 33.1151C57.5366 35.6472 59.658 37.6419 62.3858 39.0985C65.1136 40.555 68.2515 41.2828 71.8023 41.2828C75.3531 41.2828 78.491 40.555 81.2188 39.0985C83.9466 37.6419 86.0671 35.6382 87.5831 33.0836C89.0982 30.5299 89.8557 27.607 89.8557 24.3138C89.8557 21.0207 89.0972 18.1085 87.5831 15.5764C86.0671 13.0434 83.9466 11.0486 81.2188 9.59305ZM79.8549 29.538C79.0762 31.0367 77.9934 32.2084 76.6083 33.0522C75.2222 33.8968 73.6206 34.3182 71.8023 34.3182C69.9841 34.3182 68.3815 33.8968 66.9964 33.0522C65.6104 32.2084 64.5294 31.0367 63.7497 29.538C62.971 28.0401 62.5812 26.3194 62.5812 24.3776C62.5812 22.4359 62.971 20.6523 63.7497 19.1535C64.5294 17.6556 65.6104 16.4839 66.9964 15.6393C68.3815 14.7956 69.9841 14.3733 71.8023 14.3733C73.6206 14.3733 75.2222 14.7956 76.6083 15.6393C77.9934 16.4839 79.0762 17.6556 79.8549 19.1535C80.6346 20.6523 81.0244 22.373 81.0244 24.3138C81.0244 26.2547 80.6346 28.041 79.8549 29.538Z" fill="white"/>
<path d="M110.094 8.83262C108.426 9.48765 106.977 10.5956 105.743 12.1563C105.192 12.8545 104.729 13.6856 104.347 14.6363V8.42018H95.8398V40.269H104.412V26.6561C104.412 24.0387 104.834 21.9073 105.678 20.2603C106.523 18.6142 107.68 17.4011 109.153 16.6194C110.623 15.8386 112.377 15.4477 114.413 15.4477H116.166V7.84961H114.996C113.395 7.84961 111.76 8.17668 110.094 8.83082V8.83262Z" fill="white"/>
<path d="M135.919 40.27V15.1333H144.037V8.42114H135.919V0H127.348V8.42114H121.633V15.1333H127.348V40.27H135.919Z" fill="white"/>
<path d="M165.89 34.7621C163.769 34.7621 161.896 34.3506 160.273 33.5275C158.65 32.7044 157.372 31.5013 156.441 29.918C155.913 29.0213 155.541 28.0167 155.313 26.9106H180.761V24.0613C180.761 20.7691 180.046 17.8776 178.617 15.3868C177.189 12.8969 175.208 10.9444 172.675 9.53015C170.142 8.11674 167.252 7.40869 164.006 7.40869C160.759 7.40869 157.674 8.12662 155.011 9.5616C152.349 10.9974 150.248 12.9913 148.712 15.545C147.175 18.0995 146.407 21.044 146.407 24.3776C146.407 27.7112 147.207 30.6459 148.809 33.1789C150.411 35.7118 152.641 37.6967 155.498 39.1308C158.356 40.5658 161.667 41.2837 165.433 41.2837C168.551 41.2837 171.397 40.7662 173.973 39.7328C176.548 38.6986 178.659 37.2744 180.305 35.4585L175.759 30.3305C173.075 33.2849 169.785 34.763 165.888 34.763L165.89 34.7621ZM156.183 18.7105C156.939 17.1704 157.99 15.9879 159.332 15.1649C160.674 14.3418 162.233 13.9303 164.008 13.9303C165.784 13.9303 167.158 14.3319 168.391 15.1334C169.625 15.9358 170.599 17.0545 171.314 18.4886C171.775 19.4168 172.086 20.4519 172.249 21.5912H155.266C155.453 20.5417 155.755 19.5794 156.183 18.7105Z" fill="white"/>
<path d="M221.999 45.9999L205.14 24.5741L221.106 4.33984L208.329 9.24498L200.693 18.9223L193.078 9.24498L180.385 4.33984L196.252 24.5508L179.327 45.9999L192.104 41.0948L200.694 30.2089L209.239 41.0948L221.999 45.9999Z" fill="white"/>
<path d="M34.1566 31.9655L24.8967 8.4209H16L29.8971 40.2698H38.2096L52.1712 8.4209H43.5344L34.1566 31.9655Z" fill="white"/>
</g>
</svg>
